<svg xmlns="http://www.w3.org/2000/svg" xmlns:xlink="http://www.w3.org/1999/xlink" version="1.1" id="レイヤー_1" x="0px" y="0px" viewBox="0 0 360 67.5" style="enable-background:new 0 0 360 67.5;" xml:space="preserve"><script xmlns=""/>
<style type="text/css">
	.st0{enable-background:new    ;}
</style>
<title>アセット 1</title>
<g id="レイヤー_2_1_">
	<g id="レイヤー_1-2">
		<g class="st0">
			<path d="M53.1,12.2c-0.1,0.8,0.1,1.5,0.1,2.2s-0.2,3-0.4,3.6c0,0.1,0.2,1.1,0.2,1.1V24l-0.2,0.8c0.4,0.8,0.2,1.5,0.2,2.2     c0,0.4,0.2,0.8,0.2,1.2c0,1.2-0.2,2.3-0.2,3.5c0,0.8,0.1,1.6,0.1,2.3c0,0.7-0.1,1.6-0.3,2.3c0.2,0.8,0.2,1.4,0.2,2.3     c0,0.4,0.1,0.7,0.1,1.1c0,1.6-0.2,3.2-0.2,4.8c0,0.7,0.2,1.5,0.2,2.2c0,0.7-0.1,1.4-0.1,2.2c0,0.3,0.2,0.8,0.2,1.1     c0,0.4-0.1,1-0.2,1.4l-0.5,0.5l-1.3,0.2L50,51.9l-1.1,0.4c-0.7-0.1-1.6-0.1-2.3-0.2c-0.4-0.1-0.8-0.2-1.2-0.2     c-0.8,0-1.6,0.1-2.3,0.4L42.1,52c-0.5,0.1-0.9,0.1-1.4,0.1c-0.4,0-0.8-0.1-1.2-0.1C38.8,52,38,52,37.3,52c-0.4,0-0.8,0.1-1.1,0.1     c-0.8,0-1.6-0.2-2.3-0.2c-0.9,0-1.6,0.2-2.5,0.4c-0.8,0.1-1.7,0.1-2.5,0.1c-1.4,0-2.9-0.3-4.5-0.3c-0.7,0-1.6,0.2-2.4,0.2     c-0.3,0-0.7-0.1-0.9-0.1c-0.4,0-0.9,0.1-1.3,0.1c-0.5,0-1-0.2-1.5-0.2c-0.4,0-0.7,0.2-1.1,0.2c-0.7,0-1.4-0.1-2.2-0.3     c-0.4,0.1-1.1,0.3-1.5,0.3s-0.8-0.1-1.1-0.1l-0.5-0.6v-1.1c0-0.7,0-1.4,0.1-2.2l0.6-0.5c0.8,0.2,1.6,0.2,2.4,0.2     c0.3,0,0.7-0.2,1-0.2c0.4-0.1,1,0,1.4,0c0.7-0.1,1.4-0.2,2.2-0.2c0.5,0,1.1,0.4,1.6,0.4c0.7,0,1.4-0.3,2-0.3     c0.8,0,1.6,0.2,2.3,0.2c0.8,0.1,1.8,0.1,2.7,0.1l0.9-0.4c0.4,0.1,1,0.2,1.3,0.2c0.4,0,0.8-0.2,1.2-0.2c0.4,0,0.7,0.1,1.1,0.1     c1.1,0.1,2.4-0.1,3.6,0.2l1.4-0.5l0.9,0.3c0.3-0.1,0.8-0.2,1.2-0.2c0.8,0,1.5,0.1,2.3,0.1h2.6c0.7,0,1.4-0.1,2.1-0.1     c0.4,0,0.9,0.2,1.3,0.2c0.1-1.3,0.1-2.5,0.1-3.7c0-1.2,0.1-2.5,0.2-3.7l-0.3-1c0.3-0.7,0.3-1.4,0.3-2.2c0-0.5-0.1-1-0.1-1.6     c0-0.4,0.1-0.7,0.1-1c0-1.2-0.2-2.5-0.2-3.7c0-0.1,0.3-0.9,0.3-1c0-0.7-0.2-1.4-0.2-2.2c0-0.8,0.2-1.7,0.2-2.5     c0-0.8-0.3-1.7-0.3-2.5c0-0.4,0.2-0.7,0.2-1c0-0.8-0.1-1.6-0.1-2.3c0-0.3,0.1-0.6,0.1-1c0-0.9-0.4-1.4-0.2-2.6     c-0.4,0-0.8-0.1-1.3-0.1c-1,0-2.2,0.4-3.2,0.4c-0.1,0-1.4-0.3-1.6-0.4c-0.7,0.4-1.4,0.2-2.1,0.2c-0.8,0-1.6-0.2-2.3-0.3L36.7,16     c-0.8-0.1-1.7-0.2-2.5-0.2c-0.8,0-1.7,0.1-2.5,0.1l-1-0.4c-0.8,0.1-1.6,0.2-2.3,0.2c-0.4,0-0.8-0.1-1.2-0.1l-0.9,0.4l-1.9-0.5     c-0.7,0.2-1.4,0.2-2.2,0.2h-4.4c-0.1,0-1.1-0.2-1.2-0.2l-2.3,0.4l-1-0.3h-1.3l-0.7-0.5c-0.1-0.7-0.1-1.4-0.1-2.2v-0.8l0.7-0.5     c0.8-0.3,1.6-0.2,2.3-0.2c0.4,0,0.8-0.1,1.2-0.2l1.2,0.4c1.1-0.2,2.1-0.1,3.2-0.1c0.5,0,0.9-0.1,1.4-0.1c0.8,0,1.7,0.2,2.5,0.2     c0.7,0,1.5-0.2,2.2-0.4c0.7,0.3,1.4,0.3,2.2,0.3c0.4,0,0.7-0.1,1-0.1s0.8,0.1,1.1,0.1s0.8-0.1,1.1-0.1c0.4,0,0.8,0.1,1.2,0.1     c0.8,0.1,1.5,0.1,2.3,0.1c0.9,0,1.8-0.2,2.7-0.2c0.1,0,0.9,0.2,1,0.2c0.3-0.1,0.7-0.2,1.1-0.2s0.7,0.1,1.1,0.1     c1.5,0,3.1-0.2,4.6-0.2c0.8,0,1.6,0.2,2.4,0.2c0.5,0,1-0.1,1.5-0.1c0.6,0,1.3,0.1,1.9,0.1c0.4,0,0.8-0.1,1.3-0.2L53.1,12.2z"/>
			<path d="M115.9,53.3c-1.1,0.7-1.7,1.8-2.8,2.5l-0.7-0.2c-0.5-0.6-1-1.3-1.5-1.9c-0.7-0.7-1.1-0.7-1.7-1.9l-1.1-0.6     c-0.3-0.8-1-1.2-1.5-1.9c-0.2-0.2-0.4-0.7-0.6-1c-0.3-0.3-0.8-0.7-1.1-0.9c-0.6-0.5-1.1-1-1.6-1.4c-0.3-0.2-0.7-0.5-0.9-0.7     c-0.2-0.2-0.4-0.6-0.7-0.8c-0.5-0.5-1.4-1-2-1.6c-0.8-0.7-1.3-1.7-2.2-2.4c-1-0.8-2.1-1.2-2.8-2.3c-1.1-0.5-1.8-1.5-2.8-2.3     c-1,0.7-1.5,1.7-2.3,2.6c-0.5,0.7-1.2,1.1-1.7,1.8c-0.5,0.6-0.9,1.4-1.7,1.7c-0.5,1-1.5,2-2.3,2.7c-0.5,0.5-1.3,0.9-1.9,1.5     c-0.5,0.5-0.8,1.3-1.4,1.8c-0.6,0.6-1.3,1-1.9,1.4c-0.9,0.8-1.7,1.8-2.5,2.5c-0.5,0.6-1.3,1-2,1.5c-0.2,0.2-0.4,0.5-0.6,0.8     l-2,2.1l-0.9-0.4c-0.7-1-1.8-1.6-2.1-2.8l-0.1-1c0.5-0.4,1.3-0.8,1.8-1.3c0.7-0.5,1-1.3,1.8-1.6l0.7-1l1-0.5     c0.7-0.9,1.7-1.6,2.5-2.5c0.8-0.9,1.6-1.8,2.5-2.6c0.2-0.2,0.7-0.4,0.9-0.5c0.8-1.1,1.8-1.9,2.9-2.8l0.6-0.5     c0.2-0.3,0.4-0.8,0.6-1.1c0.3-0.4,0.7-0.7,1-0.9c0.5-0.5,1-1.2,1.3-1.9l1.1-0.5c0.5-0.6,0.7-1.4,1.2-2.1c0.2-0.3,0.5-0.5,0.8-0.8     l0.7-0.9c0.5-0.7,1.3-1.2,1.7-1.8c0.2-0.3,0.4-0.8,0.7-1.1c0.2-0.3,0.6-0.5,0.8-0.8c0.7-0.8,1.2-1.9,1.9-2.7l0.9-1     c0.2-0.2,0.3-0.5,0.4-0.8c0.4-0.5,0.8-0.8,1.1-1.3c0.1-0.7,0.6-1.2,1-1.8c0.2-0.3,0.3-0.7,0.4-1c0.2-0.3,0.5-0.6,0.8-0.9     c0.5-0.7,0.8-1.3,1.6-1.9l0.3-1.1h-1.1c-0.8,0-1.6,0.2-2.3,0.2c-0.8,0-1.7-0.1-2.3-0.4c-0.8,0.2-1.5,0.2-2.3,0.2     c0,0-1-0.2-1.1-0.3c-1.1,0.1-2.4,0.3-3.5,0.3c-0.4,0-0.9-0.2-1.3-0.2c-0.4,0-0.8,0.2-1.1,0.2c-0.4,0.1-0.8,0-1.3,0     c-1.1,0-2.3-0.2-3.4-0.2c-0.7,0-1.6,0.4-2.4,0.4c-0.7,0-1.4-0.2-2.2-0.2c-1,0-2,0.1-3,0.2l-0.6-0.4c-0.4,0.1-1,0.2-1.3,0.2     s-0.7-0.1-1.1-0.2L70.3,14L70,10.4l0.9-0.4c0.7,0.1,1.5,0.1,2.3,0.1c0.1,0,0.8-0.3,0.9-0.3c0.4,0.1,1.1,0.3,1.6,0.3     c1.1,0,2.2-0.3,3.3-0.3c0.8,0,1.6,0.2,2.4,0.2c2,0,4-0.3,6-0.3c0.4,0,0.8,0.1,1.2,0.2c0.8,0.1,1.6,0.1,2.5,0.2l0.7-0.2     c0.7,0.1,1.5,0.2,2.2,0.2c1.3,0,2.5-0.2,3.7-0.2c0.1,0,1.2,0.3,1.3,0.3l1.2-0.4c0.8,0.4,1.6,0.3,2.4,0.3c0.1,0,1.1-0.3,1.2-0.4     c0.7,0.1,1.5,0.1,2.2,0.3c0.6,0.5,1.5,1,2.3,1.2l0.3,1c-0.3,0.8-0.8,1.3-1.2,2c-0.6,0.9-1.2,2-1.5,3.1c-0.9,0.8-1.4,1.9-2.1,2.9     l-0.2,0.8l-1,1c-0.1,0.3-0.2,0.7-0.4,1c-0.3,0.6-2.4,3.2-2.9,3.7c-0.2,0.3-0.5,0.5-0.7,0.8l-0.7,1.1c-0.2,0.3-0.5,0.5-0.8,0.8     c-0.5,0.6-0.7,1.4-1.1,1.9c-0.2,0.4-0.7,0.6-1,0.9c0.7,0.8,1.9,1.8,3,2c0.9,1.5,1.4,1.5,2.4,2.3c0.5,0.4,0.8,0.9,1.2,1.4     c0.7,0.8,1.4,1.5,2.2,2.2c1.4,1.4,3.5,2.3,4.5,4.2l1.1,0.7c0.4,0.7,1,1.4,1.5,1.9c0.2,0.2,0.5,0.4,0.8,0.6     c0.4,0.4,0.9,0.9,1.3,1.3c0.2,0.2,0.3,0.4,0.5,0.5c0.1,0.1,0.4,0.2,0.4,0.4c0.3,0.4,0.5,0.7,0.9,1.1l1.3,1.2L115.9,53.3z"/>
			<path d="M176.9,16.1v0.8c0,0.7,0,1.4-0.1,2l-0.4,0.7c-0.4,0.1-1,0.2-1.4,0.2c-0.4,0-0.7-0.2-1.1-0.2c-0.3,0-0.7,0.1-1.1,0.1     c-0.4,0-0.8-0.1-1.3-0.1c-0.1,0-1,0.2-1.1,0.2l-1.3-0.3c-0.4,0.1-1,0.2-1.4,0.2c-1,0-2.3-0.2-3.3-0.2c-0.4,0-0.8,0.1-1.2,0.2     c-0.3,1.1-0.7,2.1-0.9,3.1c-0.2,0.5-0.1,1.1-0.2,1.6c-0.1,0.7-0.6,1.6-1,2.2c-0.1,1-0.3,2.3-0.6,3.3c-0.2,0.8-0.6,1.6-0.9,2.3     c-0.1,0.3-0.2,0.7-0.3,1c-0.2,0.4-0.5,0.8-0.6,1.1c-0.3,0.7-0.4,1.4-0.7,2c-0.1,0.4-0.4,0.6-0.5,0.9c-0.3,0.7-0.4,1.4-0.7,2.1     c-0.3,0.7-0.7,1.4-1,2.2c-0.2,0.4-0.4,0.9-0.6,1.3c-0.1,0.2-0.4,0.5-0.5,0.7c-0.2,1.1-0.8,2.3-1.4,3.2c-0.4,0.6-1,1.1-1.4,1.8     c-0.2,0.4-0.5,0.9-0.6,1.3c-0.1,0.2-0.1,0.6-0.2,0.8c-0.4,0.8-1,1.2-1.5,1.9c-0.9,1.3-1.4,2.9-2.5,4.2l-0.9,0.1l-0.8-0.7     c-0.7-0.1-1.6-0.5-2.2-1l-0.2-1c0.7-1.2,1.4-2.2,2.2-3.3c0.2-0.4,0.3-0.8,0.5-1.1c0.2-0.2,0.5-0.5,0.7-0.7c0.2-1.2,1.3-2,1.8-3     c0.4-0.7,0.4-1.4,1-2l0.4-1.2l1-1.1c0.1-0.8,1.1-3.3,1.6-4.1c0.2-0.3,0.4-0.5,0.6-0.8l0.7-1.4c0.4-1,0.9-2.1,1.2-3.1     c0.1-0.4,0.1-1,0.3-1.4c0.1-0.4,0.5-0.7,0.7-1.1c0.3-0.7,0.5-1.6,0.5-2.3l0.5-0.8c0.4-2.4,0.8-4.9,1.7-7.1l-1.3-0.2l-1.1,0.3     c-0.8-0.2-1.6-0.2-2.3-0.2c-0.4,0-1,0.1-1.4,0.2c-0.8,0.1-1.6,0-2.3,0.1l-0.8-0.3c-0.9,0.1-1.8,0.1-2.8,0.1     c-0.4,0-0.8,0.1-1.2,0.1c-0.8,0.1-1.6-0.1-2.3-0.1c-0.3,0-0.6,0.1-0.9,0.1c-0.5,0-0.9-0.2-1.4-0.2c-0.8,0-1.6,0.1-2.3,0.2     c-0.4,0.6-0.7,1.3-1.1,1.9c-0.2,0.2-0.5,0.4-0.7,0.7c-0.2,0.4-0.3,0.8-0.5,1.2c-0.6,1-1.4,1.9-2.1,2.8l-0.3,1.1l-0.7,1l-0.9,0.6     c-0.5,1.6-1.9,2.5-2.9,3.7l-0.6,0.2c-1-0.6-2-1.2-2.9-2l-0.1-1.1c0.5-0.5,0.8-1.3,1.2-1.7c0.5-0.5,1.3-1.1,1.9-1.5     c0.4-1.1,1.1-2,1.8-2.9c0.4-0.7,0.8-1.6,1.2-2.2c0.2-0.3,0.6-0.5,0.8-0.8c0.2-0.2,1.2-1.6,1.3-1.7c0.2-0.4,0.2-0.9,0.4-1.3     c1-0.7,2-2.9,2.4-4l1-0.9c0.3-0.7,0.5-1.4,0.8-2.1c0.2-0.4,0.4-0.7,0.6-1c0.3-0.7,0.5-1.6,0.8-2.3c0.1-0.3,0.4-0.6,0.5-0.9     c0.4-0.8,0.4-1.9,1-2.6l0.5-0.5c1.1,0.5,2.3,0.8,3.4,1.3l0.4,0.7l-0.7,1.1l-0.2,1.3c-0.2,0.2-0.4,0.5-0.5,0.8     c-0.3,0.8-0.5,1.7-0.8,2.6c-0.6,1.4-1.6,2.8-2.2,4.3l1.1-0.2c0.8,0.3,1.7,0.3,2.5,0.3c0.4,0,0.7-0.1,1-0.1h1.2     c0.5,0,1-0.1,1.4-0.1c0.4,0,0.8,0.2,1.1,0.2l1-0.1c0.4,0,0.8,0.1,1.2,0.1c0.4,0,0.8,0.1,1.1,0c0.5-0.1,1-0.2,1.4-0.2     c0.8,0,1.6,0.2,2.4,0.2c0.8,0,1.6-0.3,2.4-0.3c0.7,0,1.4,0.2,2.2,0.2c0.4,0,0.7-0.1,1.1-0.1c0.4,0,0.8,0.1,1.1,0.1     s0.7-0.2,1.1-0.2c1.7,0,3.4,0.1,5.1,0.1c0.4,0,0.9-0.1,1.3-0.1l0.8,0.2l1.4-0.3c0.8,0.2,1.5,0.2,2.3,0.2c0.3,0,0.7-0.1,1-0.1     l0.7,0.7H176.9z M175,13.1c-0.7,0.6-1.3,1.1-2.1,1.6l-0.9-0.2c-0.4-0.7-0.9-1.1-1.3-1.7c-0.2-0.3-0.3-0.8-0.5-1     c-0.2-0.3-0.5-0.5-0.7-0.8l-0.7-1.1c-0.2-0.3-0.5-0.5-0.7-0.8c-0.3-0.4-0.5-0.8-0.8-1.1c-0.5-0.6-1-1.1-1.3-1.8l-0.2-1     c0.7-0.4,1.6-0.8,2.3-1.2l0.7-0.1c0.5,0.5,1,0.9,1.6,1.3l0.3,1.1c1,0.5,1.6,1.6,2.5,2.3c0.2,1.3,1,2.5,2,3.4l-0.1,1L175,13.1z      M180.8,9.5c-0.8,0.4-1.5,0.8-2.2,1.3l-0.8-0.1l-0.7-0.7c-0.1-0.4-0.2-0.8-0.4-1.1c-0.3-0.6-1-1.1-1.4-1.7     c-0.2-0.3-0.4-0.7-0.6-1c-0.2-0.3-0.5-0.5-0.7-0.8c-0.2-0.3-0.2-0.7-0.4-1c-0.5-0.6-1.2-1.3-1.7-1.9l0.1-1.1l0.8-0.7     c0.4-0.1,1.5-0.6,1.9-0.5c0.5,0.8,1.1,1.1,1.6,1.6c0.2,0.3,0.4,0.8,0.7,1.2c0.5,0.7,1.1,1.3,1.6,1.9c0.1,0.2,0.2,0.5,0.3,0.7     c0.2,0.3,0.7,0.6,1,0.9c0.2,0.7,0.8,1.6,1.3,2.1l-0.4,1V9.5z"/>
			<path d="M197.6,6c0,0.8,0.1,1.5,0.1,2.3c0,0.4-0.1,0.8-0.1,1.2c0,0.4,0.1,0.8,0.1,1.1c0,0.4-0.2,0.8-0.2,1.1     c0,0.4,0.2,0.8,0.2,1.1c0,1.4-0.2,2.8-0.2,4.2c0,0.9,0.2,1.9,0.2,2.7c0,0.4-0.1,0.8-0.1,1.2c0,0.4,0.2,0.8,0.2,1.1     c0.1,0.4,0,0.9,0,1.4c0,0.8-0.2,1.5-0.2,2.2c0,0.8,0.1,1.6,0.1,2.5c0,0.8-0.1,1.6-0.3,2.3c0.3,0.8,0.4,3.8,0.4,4.6l-0.7,0.7     c-0.4-0.1-0.8-0.2-1.1-0.2s-0.8,0.2-1.2,0.2c-0.4,0-0.8-0.1-1.1-0.1L193,35c-0.1-0.4-0.1-0.9-0.1-1.3c0-0.4,0.2-0.8,0.2-1.1     c0.1-0.4,0-0.8,0-1.3c0-1.6-0.2-3-0.2-4.6c0-0.7,0.4-1.4,0.4-2.2c0-0.4-0.1-1.9-0.2-2.5c-0.1-0.3-0.2-0.7-0.2-1.1     c0-0.8,0.4-1.6,0.4-2.2c0-0.8-0.3-1.6-0.3-2.3c0-1.6,0.2-3.1,0.2-4.6c0-0.4-0.1-0.8-0.1-1.3c0-0.4,0.1-0.7,0.1-1.1     c0-0.2-0.1-0.6-0.1-0.9c-0.1-0.8,0-1.5-0.1-2.2l0.6-0.8c1.2,0.1,2.4-0.2,3.6-0.2L197.6,6L197.6,6z M229.3,5.3l0.3,1.2     c-0.1,0.4-0.4,2.2-0.4,2.4c0,0.9,0.2,1.7,0.1,2.7l0.4,0.9c-0.1,1-0.2,1.9-0.3,2.8c-0.1,0.8,0.1,1.7,0.1,2.5     c0,0.5-0.1,1.1-0.1,1.6c0,0.4,0.2,0.7,0.2,1.1c0,0.9-0.2,1.7-0.2,2.6c0,0.5,0.1,1,0.1,1.4c0,0.1-0.2,1-0.2,1.1     c0.1,0.4,0.2,0.9,0.2,1.3c0,0.7-0.2,1.6-0.4,2.3l0.2,1.6c-0.7,1.8-0.8,4.8-0.9,6.7l-0.5,1c0,1.3-0.5,2.2-0.9,3.3     c-0.1,0.5-0.2,1-0.4,1.4c-0.2,0.8-1.1,1.7-1,2.6c-0.9,1.1-1.8,2.6-2.3,3.9l-0.8,0.7l-0.4,1c-0.5,0.4-1.1,0.9-1.6,1.4     c-0.7,0.7-0.8,1.1-1.7,1.7c-0.6,0.5-1.3,0.7-1.7,1c-1,0.7-0.9,1.2-2.3,1.7h-1c-0.5-1.1-1.4-1.8-2.1-3l0.3-0.7     c0.8-0.5,1.4-1.3,2.2-1.8c0.4-0.2,0.7-0.3,1.1-0.5c0.6-0.4,1-0.8,1.4-1.3c0.2-0.2,0.7-0.5,0.9-0.7c0.4-0.4,1.3-2,1.4-2.5     c1.3-1,1.2-1.5,1.8-2.7c0.1-0.2,0.4-0.5,0.5-0.7c0.5-1.3,0.5-3.1,1.4-4.1v-1.1l0.5-1v-1.4c0.7-1.2,0.7-3.5,0.7-4.8l0.4-1     c-0.1-2.2,0.1-4.5,0.2-6.7v-1.1c0.1-0.4,0.2-0.8,0.2-1.3s-0.1-1-0.2-1.4l0.4-1l-0.7-1.7l0.3-1.3l-0.3-1.6l0.4-1     c-0.1-0.7-0.2-1.4-0.2-2.2c0-0.4,0.2-0.7,0.2-1.1c0.1-0.4,0-0.8,0-1.3c0-0.3-0.1-0.6-0.1-0.9c0-0.8,0.1-1.6,0.2-2.3l0.5-0.6     c0.4,0.1,0.8,0.2,1.1,0.2c0.7,0,1.6-0.1,2.3-0.2l0.6,0.8L229.3,5.3z"/>
			<path d="M246.8,9c0.4-0.1,0.8-0.1,1.3-0.1c1.4,0,3,0.2,4.4,0.2c0.4,0,0.8-0.2,1.3-0.2c0.4,0,0.8,0.1,1.3,0.1s0.8-0.1,1.2-0.1     c0.1,0,1,0.2,1.1,0.2l1.2-0.3c0.1,0,0.8,0.2,0.8,0.2c1.3,0,2.6-0.2,3.9-0.2c0.7,0,1.4,0.2,2.2,0.2c0.4,0,0.7-0.1,1-0.1     c0.4,0,0.8,0.1,1.2,0.1c1.1,0.1,2.2,0,3.4,0c0.4,0,0.9,0.1,1.4,0.1c0.4,0,0.8-0.1,1.3-0.1c1.1,0,2.3,0.2,3.4,0.2     c0.4,0,0.9-0.2,1.3-0.2c0.3,0,0.6,0.1,0.9,0.1c0.4,0,0.8-0.1,1.3-0.1h1.2c0.8-0.1,1.6-0.2,2.3-0.2c0.4,0,0.9,0,1.3,0.1     c0.4,0.1,0.7,0.2,1,0.2c0.4,0,0.8-0.1,1.1-0.1c0.1,0,1,0.2,1.1,0.2l1.2-0.3c0.4,0.1,1,0.2,1.3,0.2c0.4,0,0.8-0.1,1.2-0.1     c0.4,0,0.8,0.1,1.1,0.1c1.9,0.9,1.8,1.2,3,2.7c-0.4,0.9-1,1.3-1.4,1.9c-0.7,1-1.1,2-1.7,3.1c-0.2,0.2-0.5,0.7-0.7,0.9     c-0.3,0.3-0.7,0.5-1,0.8c-0.5,0.7-1.3,2.5-1.9,3.2c-0.4,0.4-1.1,0.9-1.6,1.5c-0.3,0.3-0.6,0.7-0.8,1l-0.5,0.7     c-0.2,0.2-0.6,0.5-0.8,0.7c-1.6,1.5-2.3,2.9-4.4,4l-0.7,1c-1.3,0.8-2.8,2.2-3.8,2.7h-0.8c-0.7-1-1.8-1.6-2.3-2.7l0.2-0.9     c0.8-0.5,1.7-1.1,2.5-1.5l0.8-1.3c1.1-0.7,2.2-1.6,2.9-2.6l1.1-0.5c0.5-0.9,1.2-2,1.9-2.7c0.2-0.2,0.4-0.4,0.6-0.5     c0.5-0.5,1.1-1.1,1.6-1.6c0.5-0.5,0.7-1.1,1.2-1.7c0.2-0.2,0.5-0.5,0.7-0.7c0.2-0.3,0.4-0.7,0.5-1c0.1-0.2,0.4-0.4,0.5-0.6     c0.4-0.5,0.7-1.1,1.2-1.6l-0.8-0.5l-1.5,0.4c-0.1,0-1.1-0.3-1.1-0.3c-0.8,0-1.6,0.2-2.3,0.2c-0.4,0-0.8-0.2-1.3-0.2     c-0.3,0-0.6,0.2-0.9,0.2c-0.8,0-1.7-0.2-2.6-0.2c-0.4,0-0.7,0.2-1,0.2c-0.4,0.1-0.8,0-1.2,0c-0.7,0-1.6-0.2-2.3-0.4     c-0.1,0-1,0.3-1.1,0.3c-0.7,0-1.6-0.1-2.2-0.4c-1.1,0.2-2.4,0.1-3.5,0.5l-1.4-0.4c-0.7,0.2-1.5,0.2-2.3,0.2     c-0.8,0-1.6-0.2-2.4-0.2c-1.1,0-2.3,0.5-3.4,0.5c-0.3,0-0.7-0.1-1-0.1c-1.2-0.1-2.6-0.3-3.8-0.3c-0.7,0-1.4,0.3-2.1,0.3     c-0.3,0-0.7-0.1-1-0.1c-0.4,0-0.8,0.2-1.1,0.2c-0.8,0-1.6-0.2-2.5-0.1l-0.6-0.7c0-0.3,0.1-0.7,0.1-0.9c0-0.3-0.1-0.7-0.2-1     c0.1-0.6,0.2-1.3,0.5-1.8L246.8,9z M270.8,17.6c-0.1,0.7-0.2,1.3-0.2,1.9c0,0.2,0.1,0.5,0.1,0.8c0,0.4-0.1,0.8-0.1,1.1     c0,0.4,0.2,0.9,0.2,1.3c0,1.1-0.1,2.3-0.2,3.4l-0.2,1.2c-0.1,1.1,0,2.4-0.2,3.5c-0.1,0.4-0.2,0.8-0.4,1.1l0.1,1.5l-0.7,0.8     c0.2,1-0.2,1.6-0.4,2.4c-0.1,0.3,0,0.8-0.1,1.1c-0.1,0.8-0.5,1.4-0.8,2.2c-0.1,0.4-0.1,0.8-0.2,1.3c-0.3,1.1-1.1,2.2-1.1,3.5     c-0.4,0.6-0.5,1.3-0.8,1.9c-0.6,1-1.4,2-2,3.1c-0.4,0.8-0.8,1.7-1.3,2.3c-0.2,0.3-0.6,0.5-0.9,0.8c-0.9,1-1.6,2.3-2.5,3.4l-1-0.1     c-0.8-0.8-1.9-1.4-2.4-2.4l-0.2-0.8c0.4-0.4,0.9-0.7,1.3-1.1c0.2-0.2,0.5-0.7,0.7-1c0.7-1,1.5-1.8,2.1-2.9     c0.2-0.4,0.4-0.8,0.6-1.1c0.2-0.2,0.4-0.5,0.5-0.8c0.2-0.4,0.3-0.8,0.4-1.3c0.4-0.7,0.9-1.3,1.3-2l0.2-1.1c1.1-1.2,1.3-4,1.6-5.5     c0.1-0.4,0.2-0.8,0.3-1.3c0.1-0.4-0.1-0.7,0-1.1c0.1-1.1,0.6-2.5,1-3.6c0-0.4-0.1-0.8-0.1-1.1c0-0.2,0.4-1.1,0.4-1.3     c0-0.8-0.2-1.6-0.2-2.3c0-0.4,0.2-1,0.2-1.3s-0.1-0.8-0.1-1.1c0-1.4-0.1-3.9,0.3-5.2l0.5-0.8c0.3,0,0.5-0.1,0.8-0.1     c0.8,0,1.7,0.1,2.6,0.2l0.6,0.5H270.8z"/>
			<path d="M330.4,20.3c-1,0.7-1.4,1.8-2.2,2.6l-0.8-0.1l-1.5-1v-0.1c-0.7-0.5-1.4-1-2.2-1.4c-1-0.7-2-1.6-3-2.3     c-0.8-0.5-1.7-1-2.5-1.4c-0.9-0.6-1.7-1.3-2.6-1.9c-1.6-0.9-3.1-1.6-4.4-2.9L311,11c0.4-1.3,1.5-1.7,1.8-2.9l0.8-0.2     c1.7,0.7,2.9,2,4.5,2.9c0.4,0.2,0.9,0.2,1.3,0.5c1.1,0.5,1.9,1.5,2.9,2.2c0.8,0.5,1.6,0.8,2.3,1.4c0.7,0.5,1.3,1.2,2,1.8     c0.7,0.5,1.8,1.1,2.4,1.7l1.3,1.2L330.4,20.3z M351.7,16.7h0.1c0.4,0.1,0.8,0.2,1.2,0.4c0.7,0.4,1.3,0.8,2,1.2l0.4,0.9     c-0.5,0.8-1.1,1.7-1.5,2.6c-0.1,0.4-0.2,0.8-0.4,1.2c-0.2,0.4-0.5,0.7-0.7,1c-0.2,0.4-0.4,0.9-0.6,1.3c-0.4,0.7-1.1,1.4-1.6,2     c-0.2,0.3-0.2,0.7-0.4,1c-0.2,0.4-0.5,0.7-0.8,1c-0.7,1.1-1.2,2.2-2,3.1c-0.2,0.3-0.6,0.5-0.8,0.8c-0.5,0.7-0.8,1.4-1.3,2     c-0.5,0.7-1.4,1.2-1.9,1.8c-0.2,0.2-0.3,0.7-0.5,1c-0.2,0.2-0.5,0.5-0.8,0.7l-0.7,0.9c-1.3,1.5-2.9,2.7-4.4,4     c-0.3,0.2-0.5,0.5-0.8,0.7c-0.3,0.2-0.7,0.4-1,0.6c-1,0.7-1.7,1.6-2.6,2.2l-1,0.5c-0.3,0.2-0.6,0.6-1,0.8     c-0.2,0.2-0.7,0.2-0.9,0.4c-0.3,0.2-0.6,0.5-0.9,0.7c-0.4,0.2-1.6,0.9-2,1.1c-0.7,0.3-1.5,0.4-2.2,0.7c-0.7,0.4-1,0.8-1.7,1.1     c-1.1,0.5-1.4,0.4-2.4,0.7c-1.3,0.4-2.5,1-3.8,1.3c-0.7,0.2-1.5,0.2-2.2,0.5l-0.8-0.2c-0.3-1.2-1.1-2.1-1.2-3.4l0.4-0.8     c0.7-0.2,1.1-0.5,1.8-0.7c0.7-0.2,1.5-0.4,2.2-0.5l1.3-0.7l0.9-0.2l0.9-0.6l1.2-0.2c0.6-0.4,2.2-1.4,2.9-1.5     c0.6-0.5,1.3-0.8,1.9-1.1c0.4-0.2,0.6-0.5,1-0.7c0.3-0.1,0.7-0.2,0.9-0.3c0.7-0.5,1.3-1.1,2.1-1.6c0.6-0.4,1.3-0.6,1.8-1l0.7-1     c1-0.5,1.9-1.3,2.6-2.2l1.1-0.4c0.3-0.7,0.8-1.3,1.3-1.8l3-3.8c0.1-0.1,1.6-1,1.9-1.4c0.8-0.8,1.3-1.9,1.9-2.8     c0.2-0.4,0.5-0.6,0.8-1c0.6-0.8,1.1-1.7,1.8-2.5c0.1-0.8,1.6-3.3,2.1-3.9l0.4-1.4l0.9-1l0.6-1.6L351.7,16.7z"/>
		</g>
	</g>
</g>
<script xmlns=""/></svg>